<?xml version="1.0" encoding="utf-8"?>
<svg xmlns="http://www.w3.org/2000/svg">

<symbol viewBox="0 0 56 56" fill="none" id="discord">
    <circle cx="28" cy="28" r="26" fill="#F6F6F6" stroke="#2B7055" stroke-width="4"/>
    <g clip-path="url(#clip0_2_7315)">
    <path d="M39.0895 17.9893C37.0495 17.0693 34.8628 16.3893 32.5761 16.0027C32.5558 15.9987 32.5347 16.0013 32.5158 16.0099C32.497 16.0185 32.4812 16.0327 32.4708 16.0507C32.1908 16.5427 31.8788 17.184 31.6601 17.6907C29.2349 17.3283 26.7694 17.3283 24.3442 17.6907C24.1006 17.1291 23.8259 16.5816 23.5215 16.0507C23.5112 16.0325 23.4956 16.0179 23.4767 16.0089C23.4579 15.9998 23.4368 15.9967 23.4162 16C21.1308 16.3867 18.9442 17.0667 16.9028 17.988C16.8853 17.9954 16.8704 18.0079 16.8602 18.024C12.7108 24.124 11.5735 30.0733 12.1322 35.948C12.1337 35.9624 12.1382 35.9763 12.1453 35.9889C12.1524 36.0015 12.162 36.0125 12.1735 36.0213C14.5953 37.7845 17.2966 39.1277 20.1642 39.9946C20.1841 40.0008 20.2055 40.0008 20.2255 39.9946C20.2455 39.9884 20.2631 39.9763 20.2762 39.96C20.8922 39.1333 21.4415 38.26 21.9108 37.3426C21.9388 37.2893 21.9122 37.2253 21.8562 37.204C20.9948 36.8796 20.1603 36.4882 19.3602 36.0333C19.3458 36.0251 19.3337 36.0135 19.3249 35.9994C19.3161 35.9854 19.311 35.9694 19.3099 35.9529C19.3089 35.9363 19.3119 35.9198 19.3188 35.9048C19.3257 35.8897 19.3363 35.8766 19.3495 35.8666C19.5175 35.7426 19.6855 35.6133 19.8455 35.484C19.8599 35.4724 19.8772 35.4649 19.8956 35.4626C19.914 35.4602 19.9326 35.463 19.9495 35.4706C25.1855 37.8226 30.8561 37.8226 36.0308 35.4706C36.0477 35.4626 36.0666 35.4594 36.0852 35.4615C36.1038 35.4637 36.1215 35.471 36.1361 35.4826C36.2961 35.6133 36.4628 35.7426 36.6321 35.8666C36.6455 35.8764 36.6562 35.8893 36.6633 35.9042C36.6704 35.9192 36.6738 35.9356 36.673 35.9521C36.6722 35.9686 36.6673 35.9847 36.6588 35.9989C36.6503 36.013 36.6384 36.0249 36.6241 36.0333C35.8268 36.492 34.9975 36.88 34.1268 37.2026C34.1134 37.2075 34.1013 37.2152 34.0911 37.2251C34.0809 37.235 34.073 37.247 34.0678 37.2603C34.0626 37.2735 34.0603 37.2877 34.0611 37.3019C34.0618 37.3161 34.0656 37.33 34.0721 37.3426C34.5521 38.2586 35.1015 39.1306 35.7055 39.9586C35.718 39.9756 35.7355 39.9883 35.7556 39.995C35.7756 40.0017 35.7972 40.002 35.8175 39.996C38.6899 39.1315 41.3956 37.7877 43.8201 36.0213C43.832 36.013 43.8419 36.0023 43.8493 35.9899C43.8566 35.9775 43.8612 35.9637 43.8628 35.9493C44.5295 29.1573 42.7455 23.256 39.1308 18.0267C39.122 18.0097 39.1073 17.9964 39.0895 17.9893ZM22.6935 32.3706C21.1175 32.3706 19.8175 30.9453 19.8175 29.1973C19.8175 27.448 21.0922 26.024 22.6935 26.024C24.3068 26.024 25.5948 27.46 25.5695 29.1973C25.5695 30.9466 24.2948 32.3706 22.6935 32.3706ZM33.3268 32.3706C31.7495 32.3706 30.4508 30.9453 30.4508 29.1973C30.4508 27.448 31.7241 26.024 33.3268 26.024C34.9401 26.024 36.2281 27.46 36.2028 29.1973C36.2028 30.9466 34.9415 32.3706 33.3268 32.3706Z" fill="#D31D31"/>
    </g>
    <defs>
    <clipPath id="clip0_2_7315">
    <rect width="32" height="32" fill="white" transform="translate(12 12)"/>
    </clipPath>
    </defs>
</symbol>
<symbol viewBox="0 0 56 56" fill="none" id="twitter">
    <circle cx="28" cy="28" r="26" fill="#F6F6F6" stroke="#2B7055" stroke-width="4"/>
    <path d="M43.5242 18.5827C42.4108 19.076 41.2148 19.4094 39.9575 19.56C41.2548 18.7837 42.2254 17.562 42.6882 16.1227C41.4693 16.8467 40.1353 17.3563 38.7442 17.6294C37.8087 16.6305 36.5696 15.9685 35.2193 15.746C33.869 15.5235 32.483 15.7531 31.2765 16.399C30.07 17.045 29.1105 18.0712 28.547 19.3183C27.9836 20.5654 27.8476 21.9637 28.1602 23.296C25.6904 23.172 23.2743 22.5301 21.0687 21.4119C18.8631 20.2937 16.9173 18.7242 15.3575 16.8054C14.8242 17.7254 14.5175 18.792 14.5175 19.928C14.5169 20.9507 14.7688 21.9577 15.2507 22.8597C15.7326 23.7617 16.4297 24.5307 17.2802 25.0987C16.2939 25.0673 15.3293 24.8008 14.4668 24.3214V24.4014C14.4667 25.8357 14.9629 27.2259 15.8711 28.336C16.7793 29.4462 18.0436 30.2079 19.4495 30.492C18.5346 30.7396 17.5753 30.7761 16.6442 30.5987C17.0408 31.8328 17.8135 32.9121 18.854 33.6853C19.8945 34.4585 21.1507 34.8869 22.4468 34.9107C20.2466 36.6379 17.5294 37.5748 14.7322 37.5707C14.2367 37.5708 13.7416 37.5419 13.2495 37.484C16.0888 39.3096 19.394 40.2785 22.7695 40.2747C34.1962 40.2747 40.4428 30.8107 40.4428 22.6027C40.4428 22.336 40.4362 22.0667 40.4242 21.8C41.6392 20.9213 42.6881 19.8332 43.5215 18.5867L43.5242 18.5827Z" fill="#D31D31"/>
</symbol>
<symbol viewBox="0 0 56 56" fill="none" id="opensea">
    <circle cx="28" cy="28" r="26" fill="#F6F6F6" stroke="#2B7055" stroke-width="4"/>
    <path d="M45 31.408V33.08C45 33.176 44.9413 33.2613 44.856 33.2987C44.3334 33.5227 42.544 34.344 41.8 35.3787C39.9013 38.0213 38.4507 41.8 35.208 41.8H21.68C16.8853 41.8 13 37.9013 13 33.0907V32.936C13 32.808 13.104 32.704 13.232 32.704H20.7733C20.9227 32.704 21.032 32.8427 21.0187 32.9893C20.9653 33.48 21.056 33.9813 21.288 34.4373C21.736 35.3466 22.664 35.9147 23.6666 35.9147H27.4V33H23.7093C23.52 33 23.408 32.7813 23.5173 32.6266C23.5573 32.5653 23.6027 32.5013 23.6507 32.4293C24 31.9334 24.4987 31.1627 24.9946 30.2853C25.3333 29.6934 25.6613 29.0613 25.9253 28.4267C25.9787 28.312 26.0213 28.1947 26.064 28.08C26.136 27.8773 26.2107 27.688 26.264 27.4987C26.3173 27.3387 26.36 27.1707 26.4027 27.0133C26.528 26.4747 26.5813 25.904 26.5813 25.312C26.5813 25.08 26.5706 24.8373 26.5493 24.6053C26.5387 24.352 26.5067 24.0987 26.4747 23.8453C26.4533 23.6213 26.4134 23.4 26.3707 23.168C26.3173 22.8293 26.2427 22.4934 26.1573 22.1547L26.128 22.0267C26.064 21.7947 26.0106 21.5733 25.936 21.3413C25.7253 20.6133 25.4827 19.904 25.2267 19.24C25.1334 18.976 25.0266 18.7227 24.92 18.4694C24.7627 18.088 24.6027 17.7413 24.456 17.4133C24.3813 17.264 24.3173 17.128 24.2534 16.9893C24.1813 16.832 24.1067 16.6747 24.032 16.5253C23.9787 16.4106 23.9173 16.304 23.8746 16.1973L23.4187 15.3547C23.3547 15.24 23.4613 15.104 23.5866 15.1387L26.44 15.912H26.448C26.4533 15.912 26.4587 15.9147 26.4587 15.9147L26.8346 16.0187L27.248 16.136L27.4 16.1787V14.4827C27.4 13.664 28.056 13 28.8666 13C29.272 13 29.64 13.1653 29.904 13.4347C30.168 13.704 30.3334 14.072 30.3334 14.4827V17L30.6373 17.0853C30.6613 17.0933 30.6853 17.104 30.7066 17.12C30.7813 17.176 30.888 17.2587 31.024 17.36C31.1306 17.4453 31.2453 17.5493 31.384 17.656C31.6587 17.8773 31.9866 18.1627 32.3467 18.4906C32.4427 18.5734 32.536 18.6587 32.6213 18.744C33.0853 19.176 33.6053 19.6827 34.1013 20.2427C34.24 20.4 34.376 20.56 34.5146 20.728C34.6534 20.8987 34.8 21.0667 34.928 21.2347C35.096 21.4587 35.2773 21.6906 35.4347 21.9334C35.5093 22.048 35.5947 22.1653 35.6667 22.28C35.8693 22.5867 36.048 22.904 36.2187 23.2213C36.2907 23.368 36.3653 23.528 36.4293 23.6853C36.6186 24.1093 36.768 24.5413 36.864 24.9734C36.8934 25.0667 36.9146 25.168 36.9253 25.2587V25.28C36.9573 25.408 36.968 25.544 36.9787 25.6827C37.0213 26.1253 37 26.568 36.904 27.0133C36.864 27.2027 36.8106 27.3813 36.7467 27.5707C36.6827 27.752 36.6186 27.9413 36.536 28.12C36.376 28.4906 36.1867 28.8613 35.9627 29.208C35.8907 29.336 35.8053 29.472 35.72 29.6C35.6267 29.736 35.5306 29.864 35.4453 29.9894C35.328 30.1494 35.2027 30.3173 35.0746 30.4666C34.96 30.624 34.8427 30.7813 34.7147 30.92C34.536 31.1306 34.3653 31.3307 34.1867 31.5227C34.08 31.648 33.9653 31.776 33.848 31.8907C33.7333 32.0187 33.616 32.1333 33.5093 32.24C33.3307 32.4187 33.1813 32.5573 33.056 32.672L32.7627 32.9413C32.72 32.9787 32.664 33 32.6053 33H30.3334V35.9147H33.192C33.832 35.9147 34.44 35.688 34.9307 35.272C35.0986 35.1253 35.832 34.4906 36.6987 33.5334C36.728 33.5013 36.7653 33.4773 36.808 33.4667L44.704 31.184C44.8507 31.1413 45 31.2533 45 31.408Z" fill="#D31D31"/>
</symbol>
<symbol viewBox="0 0 227 71" fill="none" id="mint-button">
    <path d="M24.3014 2.9202L2.07367 31.3482C0.696848 33.1091 0.656023 35.5699 1.97368 37.3754L24.2842 67.9474C25.2255 69.2373 26.7263 70 28.3231 70H198.107C199.719 70 201.232 69.2229 202.171 67.9128L224.084 37.3398C225.367 35.549 225.327 33.1292 223.985 31.3817L202.155 2.95468C201.209 1.72234 199.743 1 198.19 1H28.2403C26.7019 1 25.2491 1.70824 24.3014 2.9202Z" stroke="#D31D31" stroke-width="2"/>
    <path d="M10.6552 31.3087L30.7311 9.34157C31.4889 8.51238 32.5604 8.04004 33.6838 8.04004H192.717C193.852 8.04004 194.935 8.5229 195.693 9.36816L215.41 31.3344C216.739 32.8157 216.778 35.0492 215.499 36.575L195.7 60.2088C194.94 61.116 193.818 61.64 192.634 61.64H33.7661C32.5951 61.64 31.4828 61.1269 30.7228 60.2359L10.5646 36.6031C9.25518 35.068 9.29402 32.7981 10.6552 31.3087Z" fill="#F6F6F6" stroke="#2B7055" stroke-width="2"/>
    <path d="M64.2383 26.9609C64.8477 26.9609 65.3633 27.25 65.7852 27.8281C66.0352 28.125 66.3281 29.2539 66.6641 31.2148C67.2344 34.4023 67.8086 37.957 68.3867 41.8789V41.9492C68.3867 42.7383 68 43.3203 67.2266 43.6953C66.9766 43.7812 66.7461 43.8242 66.5352 43.8242C65.8945 43.8242 65.3711 43.5156 64.9648 42.8984C64.8164 42.7109 64.6758 42.0664 64.543 40.9648C64.1133 38.2305 63.793 36.2227 63.582 34.9414H63.5586C63.4961 35.0898 63.0664 36.1562 62.2695 38.1406C61.8633 38.7969 61.3164 39.125 60.6289 39.125C59.832 39.125 59.207 38.6367 58.7539 37.6602C57.7852 35.9258 57.293 35.0547 57.2773 35.0469H57.2656C56.8828 39.8438 56.668 42.3633 56.6211 42.6055C56.4492 43.1367 56.1641 43.5195 55.7656 43.7539C55.4453 43.918 55.1328 44 54.8281 44C54.1406 44 53.5938 43.6562 53.1875 42.9688C53.0625 42.6953 53 42.418 53 42.1367C53.0234 41.7305 53.3945 37.2031 54.1133 28.5547C54.2617 28.0078 54.5078 27.6172 54.8516 27.3828C55.1875 27.1406 55.5508 27.0195 55.9414 27.0195C56.7461 27.0195 57.3633 27.4883 57.793 28.4258L60.3594 32.9844H60.3711C61.3555 30.5312 62.0664 28.8867 62.5039 28.0508C62.9414 27.3242 63.5195 26.9609 64.2383 26.9609ZM71.3516 26.4102H71.5039C72.1289 26.4102 72.6719 26.7148 73.1328 27.3242C73.3672 27.6992 73.4844 28.0586 73.4844 28.4023V28.6367C73.4844 29.0664 73.3125 29.4961 72.9688 29.9258C72.4844 30.4336 71.9492 30.6875 71.3633 30.6875H71.2109C70.7656 30.6875 70.332 30.5117 69.9102 30.1602C69.4805 29.7227 69.2656 29.2578 69.2656 28.7656V28.543C69.2656 28.0664 69.4609 27.5938 69.8516 27.125C70.3125 26.6484 70.8125 26.4102 71.3516 26.4102ZM71.5508 31.1562H71.6797C72.3359 31.1562 72.8711 31.5 73.2852 32.1875C73.4023 32.3906 73.4609 32.75 73.4609 33.2656C73.5938 38.3594 73.6641 41.3594 73.6719 42.2656C73.6719 42.7656 73.4102 43.2344 72.8867 43.6719C72.543 43.8906 72.2109 44 71.8906 44H71.7969C71.1953 44 70.6875 43.707 70.2734 43.1211C70.0781 42.8789 69.9805 42.4062 69.9805 41.7031C69.8477 36.1328 69.7812 33.1875 69.7812 32.8672C69.7812 32.3906 70.0234 31.9375 70.5078 31.5078C70.8672 31.2734 71.2148 31.1562 71.5508 31.1562ZM81.5 31.0156H82.0156C82.7031 31.0156 83.4492 31.2617 84.2539 31.7539C84.5117 31.9023 84.8516 32.2031 85.2734 32.6562C85.75 33.1797 86.168 33.8789 86.5273 34.7539C87.293 36.6602 87.6758 39.0469 87.6758 41.9141C87.6758 42.7969 87.3555 43.4102 86.7148 43.7539C86.457 43.918 86.1758 44 85.8711 44H85.7656C85.0859 44 84.543 43.6367 84.1367 42.9102C84.0352 42.6367 83.9844 42.4141 83.9844 42.2422C83.9844 42.0859 83.9883 41.9453 83.9961 41.8203C83.9961 39.8203 83.7422 38.0273 83.2344 36.4414C82.8125 35.2773 82.3125 34.6953 81.7344 34.6953H81.7227C81.3945 34.6953 81.1328 34.8867 80.9375 35.2695C80.7578 35.5039 80.5625 35.957 80.3516 36.6289C79.9453 38.0898 79.7422 39.793 79.7422 41.7383V42.1367C79.7422 42.8164 79.3828 43.3594 78.6641 43.7656C78.3984 43.8594 78.168 43.9062 77.9727 43.9062H77.8555C77.1992 43.9062 76.6641 43.5625 76.25 42.875C76.1172 42.6562 76.0508 42.1875 76.0508 41.4688C75.8867 36.2031 75.8047 33.3125 75.8047 32.7969C75.8047 32.25 76.0898 31.7656 76.6602 31.3438C76.9648 31.1484 77.2773 31.0508 77.5977 31.0508H77.6914C78.2305 31.0508 78.7148 31.3047 79.1445 31.8125H79.1797C79.9297 31.2812 80.7031 31.0156 81.5 31.0156ZM91.2383 28.4727H91.332C92.0195 28.4727 92.5664 28.8398 92.9727 29.5742C93.1211 29.9023 93.1953 30.5859 93.1953 31.625C93.2031 31.625 93.2148 31.7695 93.2305 32.0586L93.3594 32.0703C94.8438 32.0703 95.7031 32.1172 95.9375 32.2109C96.4141 32.4062 96.7617 32.707 96.9805 33.1133C97.1133 33.3867 97.1797 33.6523 97.1797 33.9102V34.0039C97.1797 34.6367 96.8516 35.1641 96.1953 35.5859C95.8906 35.7266 95.6445 35.7969 95.457 35.7969L93.2539 35.75V36.957C93.2539 37.4102 93.25 37.9688 93.2422 38.6328C93.2422 39.3281 93.3633 39.8438 93.6055 40.1797C93.7383 40.2734 93.918 40.3203 94.1445 40.3203C94.6992 40.3203 95.4766 40.0859 96.4766 39.6172C96.6719 39.5703 96.832 39.5469 96.957 39.5469H97.1094C97.7891 39.5469 98.332 39.9062 98.7383 40.625C98.832 40.8906 98.8789 41.1211 98.8789 41.3164V41.4219C98.8789 42.0469 98.5586 42.5742 97.918 43.0039C96.5742 43.668 95.3086 44 94.1211 44C92.5742 44 91.3672 43.3945 90.5 42.1836C89.875 41.2148 89.5625 40.1016 89.5625 38.8438C89.5703 37.8438 89.5742 37.0195 89.5742 36.3711V35.668H89.3984C88.8281 35.668 88.3359 35.4141 87.9219 34.9062C87.6875 34.5703 87.5703 34.2266 87.5703 33.875V33.7578C87.5703 33.0781 87.9336 32.5352 88.6602 32.1289C88.918 32.0352 89.1445 31.9883 89.3398 31.9883H89.5391L89.4453 30.2422C89.4453 29.7422 89.6953 29.2695 90.1953 28.8242C90.5547 28.5898 90.9023 28.4727 91.2383 28.4727ZM109.379 28.4727H109.473C110.16 28.4727 110.707 28.8398 111.113 29.5742C111.262 29.9023 111.336 30.5859 111.336 31.625C111.344 31.625 111.355 31.7695 111.371 32.0586L111.5 32.0703C112.984 32.0703 113.844 32.1172 114.078 32.2109C114.555 32.4062 114.902 32.707 115.121 33.1133C115.254 33.3867 115.32 33.6523 115.32 33.9102V34.0039C115.32 34.6367 114.992 35.1641 114.336 35.5859C114.031 35.7266 113.785 35.7969 113.598 35.7969L111.395 35.75V36.957C111.395 37.4102 111.391 37.9688 111.383 38.6328C111.383 39.3281 111.504 39.8438 111.746 40.1797C111.879 40.2734 112.059 40.3203 112.285 40.3203C112.84 40.3203 113.617 40.0859 114.617 39.6172C114.812 39.5703 114.973 39.5469 115.098 39.5469H115.25C115.93 39.5469 116.473 39.9062 116.879 40.625C116.973 40.8906 117.02 41.1211 117.02 41.3164V41.4219C117.02 42.0469 116.699 42.5742 116.059 43.0039C114.715 43.668 113.449 44 112.262 44C110.715 44 109.508 43.3945 108.641 42.1836C108.016 41.2148 107.703 40.1016 107.703 38.8438C107.711 37.8438 107.715 37.0195 107.715 36.3711V35.668H107.539C106.969 35.668 106.477 35.4141 106.062 34.9062C105.828 34.5703 105.711 34.2266 105.711 33.875V33.7578C105.711 33.0781 106.074 32.5352 106.801 32.1289C107.059 32.0352 107.285 31.9883 107.48 31.9883H107.68L107.586 30.2422C107.586 29.7422 107.836 29.2695 108.336 28.8242C108.695 28.5898 109.043 28.4727 109.379 28.4727ZM119.469 26.4102H119.621C120.246 26.4102 120.789 26.7148 121.25 27.3242C121.484 27.6992 121.602 28.0586 121.602 28.4023V28.6367C121.602 29.0664 121.43 29.4961 121.086 29.9258C120.602 30.4336 120.066 30.6875 119.48 30.6875H119.328C118.883 30.6875 118.449 30.5117 118.027 30.1602C117.598 29.7227 117.383 29.2578 117.383 28.7656V28.543C117.383 28.0664 117.578 27.5938 117.969 27.125C118.43 26.6484 118.93 26.4102 119.469 26.4102ZM119.668 31.1562H119.797C120.453 31.1562 120.988 31.5 121.402 32.1875C121.52 32.3906 121.578 32.75 121.578 33.2656C121.711 38.3594 121.781 41.3594 121.789 42.2656C121.789 42.7656 121.527 43.2344 121.004 43.6719C120.66 43.8906 120.328 44 120.008 44H119.914C119.312 44 118.805 43.707 118.391 43.1211C118.195 42.8789 118.098 42.4062 118.098 41.7031C117.965 36.1328 117.898 33.1875 117.898 32.8672C117.898 32.3906 118.141 31.9375 118.625 31.5078C118.984 31.2734 119.332 31.1562 119.668 31.1562ZM130.25 30.3945H130.379C131.902 30.3945 133.426 30.9023 134.949 31.918C135.52 32.3398 135.805 32.8594 135.805 33.4766C135.805 34.1484 135.465 34.6914 134.785 35.1055C134.488 35.2305 134.207 35.293 133.941 35.293C133.512 35.293 133.078 35.125 132.641 34.7891C131.844 34.3047 131.066 34.0625 130.309 34.0625C129.348 34.0625 128.488 34.4609 127.73 35.2578C127.223 35.8516 126.969 36.5156 126.969 37.25V37.3203C126.969 38.3438 127.406 39.1641 128.281 39.7812C128.953 40.1406 129.648 40.3203 130.367 40.3203C131.141 40.3203 131.879 40.0703 132.582 39.5703C132.887 39.3984 133.203 39.3125 133.531 39.3125C134.164 39.3125 134.688 39.6211 135.102 40.2383C135.266 40.5352 135.348 40.8398 135.348 41.1523C135.348 42.0117 134.766 42.7031 133.602 43.2266C132.57 43.7422 131.512 44 130.426 44H130.238C128.895 44 127.559 43.6094 126.23 42.8281C125.926 42.6406 125.488 42.2578 124.918 41.6797C124.551 41.2266 124.262 40.8086 124.051 40.4258C123.543 39.3711 123.289 38.3984 123.289 37.5078V37.0508C123.289 36.0742 123.582 35.0391 124.168 33.9453C124.379 33.5312 124.781 33.0234 125.375 32.4219C126 31.8438 126.559 31.4414 127.051 31.2148C128.09 30.668 129.156 30.3945 130.25 30.3945ZM139.098 26.9727C139.785 26.9727 140.332 27.3164 140.738 28.0039C140.863 28.3008 140.926 28.5586 140.926 28.7773C140.902 30.1992 140.891 31.5195 140.891 32.7383C143.18 31.0039 144.457 30.0469 144.723 29.8672C145.02 29.6797 145.34 29.5859 145.684 29.5859C146.301 29.5859 146.812 29.8672 147.219 30.4297C147.414 30.7578 147.512 31.0898 147.512 31.4258C147.512 32.1289 147.109 32.7344 146.305 33.2422L142.414 36.207V36.2305C145.086 39.0117 146.641 40.6328 147.078 41.0938C147.305 41.4609 147.418 41.8242 147.418 42.1836C147.418 42.8242 147.109 43.3477 146.492 43.7539C146.195 43.918 145.887 44 145.566 44C144.949 44 144.383 43.6719 143.867 43.0156C143.859 43.0156 142.84 41.9609 140.809 39.8516H140.773C140.758 41.1016 140.75 41.8945 140.75 42.2305C140.75 42.6602 140.562 43.0742 140.188 43.4727C139.812 43.8242 139.383 44 138.898 44C138.211 44 137.664 43.6562 137.258 42.9688C137.133 42.6797 137.07 42.4219 137.07 42.1953L137.246 28.7656C137.246 28.2266 137.5 27.7461 138.008 27.3242C138.352 27.0898 138.715 26.9727 139.098 26.9727ZM153.312 30.6641H153.605C156.066 30.6641 157.914 31.5234 159.148 33.2422C159.805 34.2422 160.133 35.3828 160.133 36.6641C160.133 37.6953 159.652 38.3633 158.691 38.668C158.691 38.7148 156.398 38.8008 151.812 38.9258C151.992 39.3086 152.344 39.6758 152.867 40.0273C153.18 40.2148 153.543 40.3086 153.957 40.3086H154.168C155.191 40.3086 156.008 40.0508 156.617 39.5352C156.938 39.3633 157.234 39.2773 157.508 39.2773H157.625C158.305 39.2773 158.848 39.6406 159.254 40.3672C159.348 40.6328 159.395 40.8633 159.395 41.0586V41.1758C159.395 42.2148 158.449 43.043 156.559 43.6602C155.777 43.8867 154.961 44 154.109 44C152.406 44 150.988 43.4492 149.855 42.3477C149.316 41.8164 148.938 41.3594 148.719 40.9766C148.008 39.875 147.574 38.6602 147.418 37.332C147.395 37.082 147.383 36.8828 147.383 36.7344V36.2656C147.383 34.9453 147.809 33.7305 148.66 32.6211C149.762 31.3164 151.312 30.6641 153.312 30.6641ZM151.344 35.2578H151.355C151.723 35.2578 153.234 35.2109 155.891 35.1172V35.082C155.406 34.5898 154.594 34.3438 153.453 34.3438C152.344 34.3438 151.652 34.6133 151.379 35.1523C151.363 35.1523 151.352 35.1875 151.344 35.2578ZM164.293 28.4727H164.387C165.074 28.4727 165.621 28.8398 166.027 29.5742C166.176 29.9023 166.25 30.5859 166.25 31.625C166.258 31.625 166.27 31.7695 166.285 32.0586L166.414 32.0703C167.898 32.0703 168.758 32.1172 168.992 32.2109C169.469 32.4062 169.816 32.707 170.035 33.1133C170.168 33.3867 170.234 33.6523 170.234 33.9102V34.0039C170.234 34.6367 169.906 35.1641 169.25 35.5859C168.945 35.7266 168.699 35.7969 168.512 35.7969L166.309 35.75V36.957C166.309 37.4102 166.305 37.9688 166.297 38.6328C166.297 39.3281 166.418 39.8438 166.66 40.1797C166.793 40.2734 166.973 40.3203 167.199 40.3203C167.754 40.3203 168.531 40.0859 169.531 39.6172C169.727 39.5703 169.887 39.5469 170.012 39.5469H170.164C170.844 39.5469 171.387 39.9062 171.793 40.625C171.887 40.8906 171.934 41.1211 171.934 41.3164V41.4219C171.934 42.0469 171.613 42.5742 170.973 43.0039C169.629 43.668 168.363 44 167.176 44C165.629 44 164.422 43.3945 163.555 42.1836C162.93 41.2148 162.617 40.1016 162.617 38.8438C162.625 37.8438 162.629 37.0195 162.629 36.3711V35.668H162.453C161.883 35.668 161.391 35.4141 160.977 34.9062C160.742 34.5703 160.625 34.2266 160.625 33.875V33.7578C160.625 33.0781 160.988 32.5352 161.715 32.1289C161.973 32.0352 162.199 31.9883 162.395 31.9883H162.594L162.5 30.2422C162.5 29.7422 162.75 29.2695 163.25 28.8242C163.609 28.5898 163.957 28.4727 164.293 28.4727Z" fill="#D31D31"/>
</symbol>



</svg>
