<?xml version="1.0" encoding="utf-8"?>
<svg xmlns="http://www.w3.org/2000/svg">

<symbol viewBox="0 0 56 56" fill="none" id="discord">
    <circle cx="28" cy="28" r="26" fill="#F6F6F6" stroke="#2B7055" stroke-width="4"/>
    <g clip-path="url(#clip0_2_7315)">
    <path d="M39.0895 17.9893C37.0495 17.0693 34.8628 16.3893 32.5761 16.0027C32.5558 15.9987 32.5347 16.0013 32.5158 16.0099C32.497 16.0185 32.4812 16.0327 32.4708 16.0507C32.1908 16.5427 31.8788 17.184 31.6601 17.6907C29.2349 17.3283 26.7694 17.3283 24.3442 17.6907C24.1006 17.1291 23.8259 16.5816 23.5215 16.0507C23.5112 16.0325 23.4956 16.0179 23.4767 16.0089C23.4579 15.9998 23.4368 15.9967 23.4162 16C21.1308 16.3867 18.9442 17.0667 16.9028 17.988C16.8853 17.9954 16.8704 18.0079 16.8602 18.024C12.7108 24.124 11.5735 30.0733 12.1322 35.948C12.1337 35.9624 12.1382 35.9763 12.1453 35.9889C12.1524 36.0015 12.162 36.0125 12.1735 36.0213C14.5953 37.7845 17.2966 39.1277 20.1642 39.9946C20.1841 40.0008 20.2055 40.0008 20.2255 39.9946C20.2455 39.9884 20.2631 39.9763 20.2762 39.96C20.8922 39.1333 21.4415 38.26 21.9108 37.3426C21.9388 37.2893 21.9122 37.2253 21.8562 37.204C20.9948 36.8796 20.1603 36.4882 19.3602 36.0333C19.3458 36.0251 19.3337 36.0135 19.3249 35.9994C19.3161 35.9854 19.311 35.9694 19.3099 35.9529C19.3089 35.9363 19.3119 35.9198 19.3188 35.9048C19.3257 35.8897 19.3363 35.8766 19.3495 35.8666C19.5175 35.7426 19.6855 35.6133 19.8455 35.484C19.8599 35.4724 19.8772 35.4649 19.8956 35.4626C19.914 35.4602 19.9326 35.463 19.9495 35.4706C25.1855 37.8226 30.8561 37.8226 36.0308 35.4706C36.0477 35.4626 36.0666 35.4594 36.0852 35.4615C36.1038 35.4637 36.1215 35.471 36.1361 35.4826C36.2961 35.6133 36.4628 35.7426 36.6321 35.8666C36.6455 35.8764 36.6562 35.8893 36.6633 35.9042C36.6704 35.9192 36.6738 35.9356 36.673 35.9521C36.6722 35.9686 36.6673 35.9847 36.6588 35.9989C36.6503 36.013 36.6384 36.0249 36.6241 36.0333C35.8268 36.492 34.9975 36.88 34.1268 37.2026C34.1134 37.2075 34.1013 37.2152 34.0911 37.2251C34.0809 37.235 34.073 37.247 34.0678 37.2603C34.0626 37.2735 34.0603 37.2877 34.0611 37.3019C34.0618 37.3161 34.0656 37.33 34.0721 37.3426C34.5521 38.2586 35.1015 39.1306 35.7055 39.9586C35.718 39.9756 35.7355 39.9883 35.7556 39.995C35.7756 40.0017 35.7972 40.002 35.8175 39.996C38.6899 39.1315 41.3956 37.7877 43.8201 36.0213C43.832 36.013 43.8419 36.0023 43.8493 35.9899C43.8566 35.9775 43.8612 35.9637 43.8628 35.9493C44.5295 29.1573 42.7455 23.256 39.1308 18.0267C39.122 18.0097 39.1073 17.9964 39.0895 17.9893ZM22.6935 32.3706C21.1175 32.3706 19.8175 30.9453 19.8175 29.1973C19.8175 27.448 21.0922 26.024 22.6935 26.024C24.3068 26.024 25.5948 27.46 25.5695 29.1973C25.5695 30.9466 24.2948 32.3706 22.6935 32.3706ZM33.3268 32.3706C31.7495 32.3706 30.4508 30.9453 30.4508 29.1973C30.4508 27.448 31.7241 26.024 33.3268 26.024C34.9401 26.024 36.2281 27.46 36.2028 29.1973C36.2028 30.9466 34.9415 32.3706 33.3268 32.3706Z" fill="#D31D31"/>
    </g>
    <defs>
    <clipPath id="clip0_2_7315">
    <rect width="32" height="32" fill="white" transform="translate(12 12)"/>
    </clipPath>
    </defs>
</symbol>
<symbol viewBox="0 0 56 56" fill="none" id="twitter">
    <circle cx="28" cy="28" r="26" fill="#F6F6F6" stroke="#2B7055" stroke-width="4"/>
    <path d="M43.5242 18.5827C42.4108 19.076 41.2148 19.4094 39.9575 19.56C41.2548 18.7837 42.2254 17.562 42.6882 16.1227C41.4693 16.8467 40.1353 17.3563 38.7442 17.6294C37.8087 16.6305 36.5696 15.9685 35.2193 15.746C33.869 15.5235 32.483 15.7531 31.2765 16.399C30.07 17.045 29.1105 18.0712 28.547 19.3183C27.9836 20.5654 27.8476 21.9637 28.1602 23.296C25.6904 23.172 23.2743 22.5301 21.0687 21.4119C18.8631 20.2937 16.9173 18.7242 15.3575 16.8054C14.8242 17.7254 14.5175 18.792 14.5175 19.928C14.5169 20.9507 14.7688 21.9577 15.2507 22.8597C15.7326 23.7617 16.4297 24.5307 17.2802 25.0987C16.2939 25.0673 15.3293 24.8008 14.4668 24.3214V24.4014C14.4667 25.8357 14.9629 27.2259 15.8711 28.336C16.7793 29.4462 18.0436 30.2079 19.4495 30.492C18.5346 30.7396 17.5753 30.7761 16.6442 30.5987C17.0408 31.8328 17.8135 32.9121 18.854 33.6853C19.8945 34.4585 21.1507 34.8869 22.4468 34.9107C20.2466 36.6379 17.5294 37.5748 14.7322 37.5707C14.2367 37.5708 13.7416 37.5419 13.2495 37.484C16.0888 39.3096 19.394 40.2785 22.7695 40.2747C34.1962 40.2747 40.4428 30.8107 40.4428 22.6027C40.4428 22.336 40.4362 22.0667 40.4242 21.8C41.6392 20.9213 42.6881 19.8332 43.5215 18.5867L43.5242 18.5827Z" fill="#D31D31"/>
</symbol>
<symbol viewBox="0 0 56 56" fill="none" id="opensea">
    <circle cx="28" cy="28" r="26" fill="#F6F6F6" stroke="#2B7055" stroke-width="4"/>
    <path d="M45 31.408V33.08C45 33.176 44.9413 33.2613 44.856 33.2987C44.3334 33.5227 42.544 34.344 41.8 35.3787C39.9013 38.0213 38.4507 41.8 35.208 41.8H21.68C16.8853 41.8 13 37.9013 13 33.0907V32.936C13 32.808 13.104 32.704 13.232 32.704H20.7733C20.9227 32.704 21.032 32.8427 21.0187 32.9893C20.9653 33.48 21.056 33.9813 21.288 34.4373C21.736 35.3466 22.664 35.9147 23.6666 35.9147H27.4V33H23.7093C23.52 33 23.408 32.7813 23.5173 32.6266C23.5573 32.5653 23.6027 32.5013 23.6507 32.4293C24 31.9334 24.4987 31.1627 24.9946 30.2853C25.3333 29.6934 25.6613 29.0613 25.9253 28.4267C25.9787 28.312 26.0213 28.1947 26.064 28.08C26.136 27.8773 26.2107 27.688 26.264 27.4987C26.3173 27.3387 26.36 27.1707 26.4027 27.0133C26.528 26.4747 26.5813 25.904 26.5813 25.312C26.5813 25.08 26.5706 24.8373 26.5493 24.6053C26.5387 24.352 26.5067 24.0987 26.4747 23.8453C26.4533 23.6213 26.4134 23.4 26.3707 23.168C26.3173 22.8293 26.2427 22.4934 26.1573 22.1547L26.128 22.0267C26.064 21.7947 26.0106 21.5733 25.936 21.3413C25.7253 20.6133 25.4827 19.904 25.2267 19.24C25.1334 18.976 25.0266 18.7227 24.92 18.4694C24.7627 18.088 24.6027 17.7413 24.456 17.4133C24.3813 17.264 24.3173 17.128 24.2534 16.9893C24.1813 16.832 24.1067 16.6747 24.032 16.5253C23.9787 16.4106 23.9173 16.304 23.8746 16.1973L23.4187 15.3547C23.3547 15.24 23.4613 15.104 23.5866 15.1387L26.44 15.912H26.448C26.4533 15.912 26.4587 15.9147 26.4587 15.9147L26.8346 16.0187L27.248 16.136L27.4 16.1787V14.4827C27.4 13.664 28.056 13 28.8666 13C29.272 13 29.64 13.1653 29.904 13.4347C30.168 13.704 30.3334 14.072 30.3334 14.4827V17L30.6373 17.0853C30.6613 17.0933 30.6853 17.104 30.7066 17.12C30.7813 17.176 30.888 17.2587 31.024 17.36C31.1306 17.4453 31.2453 17.5493 31.384 17.656C31.6587 17.8773 31.9866 18.1627 32.3467 18.4906C32.4427 18.5734 32.536 18.6587 32.6213 18.744C33.0853 19.176 33.6053 19.6827 34.1013 20.2427C34.24 20.4 34.376 20.56 34.5146 20.728C34.6534 20.8987 34.8 21.0667 34.928 21.2347C35.096 21.4587 35.2773 21.6906 35.4347 21.9334C35.5093 22.048 35.5947 22.1653 35.6667 22.28C35.8693 22.5867 36.048 22.904 36.2187 23.2213C36.2907 23.368 36.3653 23.528 36.4293 23.6853C36.6186 24.1093 36.768 24.5413 36.864 24.9734C36.8934 25.0667 36.9146 25.168 36.9253 25.2587V25.28C36.9573 25.408 36.968 25.544 36.9787 25.6827C37.0213 26.1253 37 26.568 36.904 27.0133C36.864 27.2027 36.8106 27.3813 36.7467 27.5707C36.6827 27.752 36.6186 27.9413 36.536 28.12C36.376 28.4906 36.1867 28.8613 35.9627 29.208C35.8907 29.336 35.8053 29.472 35.72 29.6C35.6267 29.736 35.5306 29.864 35.4453 29.9894C35.328 30.1494 35.2027 30.3173 35.0746 30.4666C34.96 30.624 34.8427 30.7813 34.7147 30.92C34.536 31.1306 34.3653 31.3307 34.1867 31.5227C34.08 31.648 33.9653 31.776 33.848 31.8907C33.7333 32.0187 33.616 32.1333 33.5093 32.24C33.3307 32.4187 33.1813 32.5573 33.056 32.672L32.7627 32.9413C32.72 32.9787 32.664 33 32.6053 33H30.3334V35.9147H33.192C33.832 35.9147 34.44 35.688 34.9307 35.272C35.0986 35.1253 35.832 34.4906 36.6987 33.5334C36.728 33.5013 36.7653 33.4773 36.808 33.4667L44.704 31.184C44.8507 31.1413 45 31.2533 45 31.408Z" fill="#D31D31"/>
</symbol>
<symbol width="227" height="71" viewBox="0 0 227 71" fill="none" id="mint-button">
    <path d="M24.3014 2.9202L2.07367 31.3482C0.696848 33.1091 0.656023 35.5699 1.97368 37.3754L24.2842 67.9474C25.2255 69.2373 26.7263 70 28.3231 70H198.107C199.719 70 201.232 69.2229 202.171 67.9128L224.084 37.3398C225.367 35.549 225.327 33.1292 223.985 31.3817L202.155 2.95468C201.209 1.72234 199.743 1 198.19 1H28.2403C26.7019 1 25.2491 1.70824 24.3014 2.9202Z" stroke="#D31D31" stroke-width="2"/>
    <path d="M10.6552 31.3087L30.7311 9.34151C31.4889 8.51232 32.5604 8.03998 33.6838 8.03998H192.717C193.852 8.03998 194.935 8.52284 195.693 9.36809L215.41 31.3343C216.739 32.8156 216.778 35.0491 215.499 36.5749L195.7 60.2087C194.94 61.1159 193.818 61.64 192.634 61.64H33.7661C32.5951 61.64 31.4828 61.1268 30.7228 60.2358L10.5646 36.603C9.25518 35.0679 9.29402 32.798 10.6552 31.3087Z" fill="#F6F6F6" stroke="#2B7055" stroke-width="2"/>
    <path d="M63.1523 30.6055C64.5195 30.6055 66 30.9531 67.5938 31.6484C67.75 31.7031 67.9727 31.8984 68.2617 32.2344C68.4102 32.4375 68.5234 32.7031 68.6016 33.0312C68.8125 33.2031 68.9727 33.4805 69.082 33.8633C69.1602 34.293 69.1992 34.8398 69.1992 35.5039C69.1992 35.9258 69.1953 36.4297 69.1875 37.0156C69.25 39.9531 69.2812 41.7578 69.2812 42.4297C69.2812 44.2188 68.8242 45.7188 67.9102 46.9297C67.3633 47.5234 66.9805 47.8711 66.7617 47.9727C65.8867 48.5273 64.9297 48.8047 63.8906 48.8047H63.7148C62.9258 48.8047 62.1875 48.668 61.5 48.3945C60.8359 47.9961 60.5039 47.4492 60.5039 46.7539C60.5039 46.0586 60.8438 45.5117 61.5234 45.1133C61.8047 44.9883 62.0859 44.9258 62.3672 44.9258C62.4531 44.9258 62.8125 44.9883 63.4453 45.1133C63.6094 45.1211 63.7383 45.125 63.832 45.125C64.6914 45.125 65.2188 44.6914 65.4141 43.8242C65.4688 43.668 65.4961 43.5312 65.4961 43.4141H65.4844C64.4922 43.7969 63.6172 43.9883 62.8594 43.9883H62.3906C61.4922 43.9883 60.5586 43.7148 59.5898 43.168C57.8633 42.0117 57 40.207 57 37.7539C57 35.6602 57.5078 33.957 58.5234 32.6445C59.6484 31.2852 61.1914 30.6055 63.1523 30.6055ZM60.6797 37.7891C60.6797 39.4688 61.3086 40.3086 62.5664 40.3086H62.7188C63.4375 40.3086 64.1016 40.082 64.7109 39.6289C64.9062 39.3711 65.0742 39.0117 65.2148 38.5508C65.4023 37.7852 65.4961 37.1562 65.4961 36.6641C65.4961 36.1719 65.4883 35.5352 65.4727 34.7539C64.6211 34.4414 63.832 34.2852 63.1055 34.2852C62.0586 34.2852 61.3828 34.6797 61.0781 35.4688C60.8125 36.1328 60.6797 36.9062 60.6797 37.7891ZM76.6406 30.6641H76.9336C79.3945 30.6641 81.2422 31.5234 82.4766 33.2422C83.1328 34.2422 83.4609 35.3828 83.4609 36.6641C83.4609 37.6953 82.9805 38.3633 82.0195 38.668C82.0195 38.7148 79.7266 38.8008 75.1406 38.9258C75.3203 39.3086 75.6719 39.6758 76.1953 40.0273C76.5078 40.2148 76.8711 40.3086 77.2852 40.3086H77.4961C78.5195 40.3086 79.3359 40.0508 79.9453 39.5352C80.2656 39.3633 80.5625 39.2773 80.8359 39.2773H80.9531C81.6328 39.2773 82.1758 39.6406 82.582 40.3672C82.6758 40.6328 82.7227 40.8633 82.7227 41.0586V41.1758C82.7227 42.2148 81.7773 43.043 79.8867 43.6602C79.1055 43.8867 78.2891 44 77.4375 44C75.7344 44 74.3164 43.4492 73.1836 42.3477C72.6445 41.8164 72.2656 41.3594 72.0469 40.9766C71.3359 39.875 70.9023 38.6602 70.7461 37.332C70.7227 37.082 70.7109 36.8828 70.7109 36.7344V36.2656C70.7109 34.9453 71.1367 33.7305 71.9883 32.6211C73.0898 31.3164 74.6406 30.6641 76.6406 30.6641ZM74.6719 35.2578H74.6836C75.0508 35.2578 76.5625 35.2109 79.2188 35.1172V35.082C78.7344 34.5898 77.9219 34.3438 76.7812 34.3438C75.6719 34.3438 74.9805 34.6133 74.707 35.1523C74.6914 35.1523 74.6797 35.1875 74.6719 35.2578ZM87.6211 28.4727H87.7148C88.4023 28.4727 88.9492 28.8398 89.3555 29.5742C89.5039 29.9023 89.5781 30.5859 89.5781 31.625C89.5859 31.625 89.5977 31.7695 89.6133 32.0586L89.7422 32.0703C91.2266 32.0703 92.0859 32.1172 92.3203 32.2109C92.7969 32.4062 93.1445 32.707 93.3633 33.1133C93.4961 33.3867 93.5625 33.6523 93.5625 33.9102V34.0039C93.5625 34.6367 93.2344 35.1641 92.5781 35.5859C92.2734 35.7266 92.0273 35.7969 91.8398 35.7969L89.6367 35.75V36.957C89.6367 37.4102 89.6328 37.9688 89.625 38.6328C89.625 39.3281 89.7461 39.8438 89.9883 40.1797C90.1211 40.2734 90.3008 40.3203 90.5273 40.3203C91.082 40.3203 91.8594 40.0859 92.8594 39.6172C93.0547 39.5703 93.2148 39.5469 93.3398 39.5469H93.4922C94.1719 39.5469 94.7148 39.9062 95.1211 40.625C95.2148 40.8906 95.2617 41.1211 95.2617 41.3164V41.4219C95.2617 42.0469 94.9414 42.5742 94.3008 43.0039C92.957 43.668 91.6914 44 90.5039 44C88.957 44 87.75 43.3945 86.8828 42.1836C86.2578 41.2148 85.9453 40.1016 85.9453 38.8438C85.9531 37.8438 85.957 37.0195 85.957 36.3711V35.668H85.7812C85.2109 35.668 84.7188 35.4141 84.3047 34.9062C84.0703 34.5703 83.9531 34.2266 83.9531 33.875V33.7578C83.9531 33.0781 84.3164 32.5352 85.043 32.1289C85.3008 32.0352 85.5273 31.9883 85.7227 31.9883H85.9219L85.8281 30.2422C85.8281 29.7422 86.0781 29.2695 86.5781 28.8242C86.9375 28.5898 87.2852 28.4727 87.6211 28.4727ZM105.762 28.4727H105.855C106.543 28.4727 107.09 28.8398 107.496 29.5742C107.645 29.9023 107.719 30.5859 107.719 31.625C107.727 31.625 107.738 31.7695 107.754 32.0586L107.883 32.0703C109.367 32.0703 110.227 32.1172 110.461 32.2109C110.938 32.4062 111.285 32.707 111.504 33.1133C111.637 33.3867 111.703 33.6523 111.703 33.9102V34.0039C111.703 34.6367 111.375 35.1641 110.719 35.5859C110.414 35.7266 110.168 35.7969 109.98 35.7969L107.777 35.75V36.957C107.777 37.4102 107.773 37.9688 107.766 38.6328C107.766 39.3281 107.887 39.8438 108.129 40.1797C108.262 40.2734 108.441 40.3203 108.668 40.3203C109.223 40.3203 110 40.0859 111 39.6172C111.195 39.5703 111.355 39.5469 111.48 39.5469H111.633C112.312 39.5469 112.855 39.9062 113.262 40.625C113.355 40.8906 113.402 41.1211 113.402 41.3164V41.4219C113.402 42.0469 113.082 42.5742 112.441 43.0039C111.098 43.668 109.832 44 108.645 44C107.098 44 105.891 43.3945 105.023 42.1836C104.398 41.2148 104.086 40.1016 104.086 38.8438C104.094 37.8438 104.098 37.0195 104.098 36.3711V35.668H103.922C103.352 35.668 102.859 35.4141 102.445 34.9062C102.211 34.5703 102.094 34.2266 102.094 33.875V33.7578C102.094 33.0781 102.457 32.5352 103.184 32.1289C103.441 32.0352 103.668 31.9883 103.863 31.9883H104.062L103.969 30.2422C103.969 29.7422 104.219 29.2695 104.719 28.8242C105.078 28.5898 105.426 28.4727 105.762 28.4727ZM115.852 26.4102H116.004C116.629 26.4102 117.172 26.7148 117.633 27.3242C117.867 27.6992 117.984 28.0586 117.984 28.4023V28.6367C117.984 29.0664 117.812 29.4961 117.469 29.9258C116.984 30.4336 116.449 30.6875 115.863 30.6875H115.711C115.266 30.6875 114.832 30.5117 114.41 30.1602C113.98 29.7227 113.766 29.2578 113.766 28.7656V28.543C113.766 28.0664 113.961 27.5938 114.352 27.125C114.812 26.6484 115.312 26.4102 115.852 26.4102ZM116.051 31.1562H116.18C116.836 31.1562 117.371 31.5 117.785 32.1875C117.902 32.3906 117.961 32.75 117.961 33.2656C118.094 38.3594 118.164 41.3594 118.172 42.2656C118.172 42.7656 117.91 43.2344 117.387 43.6719C117.043 43.8906 116.711 44 116.391 44H116.297C115.695 44 115.188 43.707 114.773 43.1211C114.578 42.8789 114.48 42.4062 114.48 41.7031C114.348 36.1328 114.281 33.1875 114.281 32.8672C114.281 32.3906 114.523 31.9375 115.008 31.5078C115.367 31.2734 115.715 31.1562 116.051 31.1562ZM126.633 30.3945H126.762C128.285 30.3945 129.809 30.9023 131.332 31.918C131.902 32.3398 132.188 32.8594 132.188 33.4766C132.188 34.1484 131.848 34.6914 131.168 35.1055C130.871 35.2305 130.59 35.293 130.324 35.293C129.895 35.293 129.461 35.125 129.023 34.7891C128.227 34.3047 127.449 34.0625 126.691 34.0625C125.73 34.0625 124.871 34.4609 124.113 35.2578C123.605 35.8516 123.352 36.5156 123.352 37.25V37.3203C123.352 38.3438 123.789 39.1641 124.664 39.7812C125.336 40.1406 126.031 40.3203 126.75 40.3203C127.523 40.3203 128.262 40.0703 128.965 39.5703C129.27 39.3984 129.586 39.3125 129.914 39.3125C130.547 39.3125 131.07 39.6211 131.484 40.2383C131.648 40.5352 131.73 40.8398 131.73 41.1523C131.73 42.0117 131.148 42.7031 129.984 43.2266C128.953 43.7422 127.895 44 126.809 44H126.621C125.277 44 123.941 43.6094 122.613 42.8281C122.309 42.6406 121.871 42.2578 121.301 41.6797C120.934 41.2266 120.645 40.8086 120.434 40.4258C119.926 39.3711 119.672 38.3984 119.672 37.5078V37.0508C119.672 36.0742 119.965 35.0391 120.551 33.9453C120.762 33.5312 121.164 33.0234 121.758 32.4219C122.383 31.8438 122.941 31.4414 123.434 31.2148C124.473 30.668 125.539 30.3945 126.633 30.3945ZM135.48 26.9727C136.168 26.9727 136.715 27.3164 137.121 28.0039C137.246 28.3008 137.309 28.5586 137.309 28.7773C137.285 30.1992 137.273 31.5195 137.273 32.7383C139.562 31.0039 140.84 30.0469 141.105 29.8672C141.402 29.6797 141.723 29.5859 142.066 29.5859C142.684 29.5859 143.195 29.8672 143.602 30.4297C143.797 30.7578 143.895 31.0898 143.895 31.4258C143.895 32.1289 143.492 32.7344 142.688 33.2422L138.797 36.207V36.2305C141.469 39.0117 143.023 40.6328 143.461 41.0938C143.688 41.4609 143.801 41.8242 143.801 42.1836C143.801 42.8242 143.492 43.3477 142.875 43.7539C142.578 43.918 142.27 44 141.949 44C141.332 44 140.766 43.6719 140.25 43.0156C140.242 43.0156 139.223 41.9609 137.191 39.8516H137.156C137.141 41.1016 137.133 41.8945 137.133 42.2305C137.133 42.6602 136.945 43.0742 136.57 43.4727C136.195 43.8242 135.766 44 135.281 44C134.594 44 134.047 43.6562 133.641 42.9688C133.516 42.6797 133.453 42.4219 133.453 42.1953L133.629 28.7656C133.629 28.2266 133.883 27.7461 134.391 27.3242C134.734 27.0898 135.098 26.9727 135.48 26.9727ZM149.695 30.6641H149.988C152.449 30.6641 154.297 31.5234 155.531 33.2422C156.188 34.2422 156.516 35.3828 156.516 36.6641C156.516 37.6953 156.035 38.3633 155.074 38.668C155.074 38.7148 152.781 38.8008 148.195 38.9258C148.375 39.3086 148.727 39.6758 149.25 40.0273C149.562 40.2148 149.926 40.3086 150.34 40.3086H150.551C151.574 40.3086 152.391 40.0508 153 39.5352C153.32 39.3633 153.617 39.2773 153.891 39.2773H154.008C154.688 39.2773 155.23 39.6406 155.637 40.3672C155.73 40.6328 155.777 40.8633 155.777 41.0586V41.1758C155.777 42.2148 154.832 43.043 152.941 43.6602C152.16 43.8867 151.344 44 150.492 44C148.789 44 147.371 43.4492 146.238 42.3477C145.699 41.8164 145.32 41.3594 145.102 40.9766C144.391 39.875 143.957 38.6602 143.801 37.332C143.777 37.082 143.766 36.8828 143.766 36.7344V36.2656C143.766 34.9453 144.191 33.7305 145.043 32.6211C146.145 31.3164 147.695 30.6641 149.695 30.6641ZM147.727 35.2578H147.738C148.105 35.2578 149.617 35.2109 152.273 35.1172V35.082C151.789 34.5898 150.977 34.3438 149.836 34.3438C148.727 34.3438 148.035 34.6133 147.762 35.1523C147.746 35.1523 147.734 35.1875 147.727 35.2578ZM160.676 28.4727H160.77C161.457 28.4727 162.004 28.8398 162.41 29.5742C162.559 29.9023 162.633 30.5859 162.633 31.625C162.641 31.625 162.652 31.7695 162.668 32.0586L162.797 32.0703C164.281 32.0703 165.141 32.1172 165.375 32.2109C165.852 32.4062 166.199 32.707 166.418 33.1133C166.551 33.3867 166.617 33.6523 166.617 33.9102V34.0039C166.617 34.6367 166.289 35.1641 165.633 35.5859C165.328 35.7266 165.082 35.7969 164.895 35.7969L162.691 35.75V36.957C162.691 37.4102 162.688 37.9688 162.68 38.6328C162.68 39.3281 162.801 39.8438 163.043 40.1797C163.176 40.2734 163.355 40.3203 163.582 40.3203C164.137 40.3203 164.914 40.0859 165.914 39.6172C166.109 39.5703 166.27 39.5469 166.395 39.5469H166.547C167.227 39.5469 167.77 39.9062 168.176 40.625C168.27 40.8906 168.316 41.1211 168.316 41.3164V41.4219C168.316 42.0469 167.996 42.5742 167.355 43.0039C166.012 43.668 164.746 44 163.559 44C162.012 44 160.805 43.3945 159.938 42.1836C159.312 41.2148 159 40.1016 159 38.8438C159.008 37.8438 159.012 37.0195 159.012 36.3711V35.668H158.836C158.266 35.668 157.773 35.4141 157.359 34.9062C157.125 34.5703 157.008 34.2266 157.008 33.875V33.7578C157.008 33.0781 157.371 32.5352 158.098 32.1289C158.355 32.0352 158.582 31.9883 158.777 31.9883H158.977L158.883 30.2422C158.883 29.7422 159.133 29.2695 159.633 28.8242C159.992 28.5898 160.34 28.4727 160.676 28.4727Z" fill="#D31D31"/>
</symbol>


</svg>
