<?xml version="1.0" encoding="utf-8"?>
<svg xmlns="http://www.w3.org/2000/svg">

<symbol viewBox="0 0 56 56" fill="none" id="discord">
    <circle cx="28" cy="28" r="26" fill="#F6F6F6" stroke="#2B7055" stroke-width="4"/>
    <g clip-path="url(#clip0_2_7315)">
    <path d="M39.0895 17.9893C37.0495 17.0693 34.8628 16.3893 32.5761 16.0027C32.5558 15.9987 32.5347 16.0013 32.5158 16.0099C32.497 16.0185 32.4812 16.0327 32.4708 16.0507C32.1908 16.5427 31.8788 17.184 31.6601 17.6907C29.2349 17.3283 26.7694 17.3283 24.3442 17.6907C24.1006 17.1291 23.8259 16.5816 23.5215 16.0507C23.5112 16.0325 23.4956 16.0179 23.4767 16.0089C23.4579 15.9998 23.4368 15.9967 23.4162 16C21.1308 16.3867 18.9442 17.0667 16.9028 17.988C16.8853 17.9954 16.8704 18.0079 16.8602 18.024C12.7108 24.124 11.5735 30.0733 12.1322 35.948C12.1337 35.9624 12.1382 35.9763 12.1453 35.9889C12.1524 36.0015 12.162 36.0125 12.1735 36.0213C14.5953 37.7845 17.2966 39.1277 20.1642 39.9946C20.1841 40.0008 20.2055 40.0008 20.2255 39.9946C20.2455 39.9884 20.2631 39.9763 20.2762 39.96C20.8922 39.1333 21.4415 38.26 21.9108 37.3426C21.9388 37.2893 21.9122 37.2253 21.8562 37.204C20.9948 36.8796 20.1603 36.4882 19.3602 36.0333C19.3458 36.0251 19.3337 36.0135 19.3249 35.9994C19.3161 35.9854 19.311 35.9694 19.3099 35.9529C19.3089 35.9363 19.3119 35.9198 19.3188 35.9048C19.3257 35.8897 19.3363 35.8766 19.3495 35.8666C19.5175 35.7426 19.6855 35.6133 19.8455 35.484C19.8599 35.4724 19.8772 35.4649 19.8956 35.4626C19.914 35.4602 19.9326 35.463 19.9495 35.4706C25.1855 37.8226 30.8561 37.8226 36.0308 35.4706C36.0477 35.4626 36.0666 35.4594 36.0852 35.4615C36.1038 35.4637 36.1215 35.471 36.1361 35.4826C36.2961 35.6133 36.4628 35.7426 36.6321 35.8666C36.6455 35.8764 36.6562 35.8893 36.6633 35.9042C36.6704 35.9192 36.6738 35.9356 36.673 35.9521C36.6722 35.9686 36.6673 35.9847 36.6588 35.9989C36.6503 36.013 36.6384 36.0249 36.6241 36.0333C35.8268 36.492 34.9975 36.88 34.1268 37.2026C34.1134 37.2075 34.1013 37.2152 34.0911 37.2251C34.0809 37.235 34.073 37.247 34.0678 37.2603C34.0626 37.2735 34.0603 37.2877 34.0611 37.3019C34.0618 37.3161 34.0656 37.33 34.0721 37.3426C34.5521 38.2586 35.1015 39.1306 35.7055 39.9586C35.718 39.9756 35.7355 39.9883 35.7556 39.995C35.7756 40.0017 35.7972 40.002 35.8175 39.996C38.6899 39.1315 41.3956 37.7877 43.8201 36.0213C43.832 36.013 43.8419 36.0023 43.8493 35.9899C43.8566 35.9775 43.8612 35.9637 43.8628 35.9493C44.5295 29.1573 42.7455 23.256 39.1308 18.0267C39.122 18.0097 39.1073 17.9964 39.0895 17.9893ZM22.6935 32.3706C21.1175 32.3706 19.8175 30.9453 19.8175 29.1973C19.8175 27.448 21.0922 26.024 22.6935 26.024C24.3068 26.024 25.5948 27.46 25.5695 29.1973C25.5695 30.9466 24.2948 32.3706 22.6935 32.3706ZM33.3268 32.3706C31.7495 32.3706 30.4508 30.9453 30.4508 29.1973C30.4508 27.448 31.7241 26.024 33.3268 26.024C34.9401 26.024 36.2281 27.46 36.2028 29.1973C36.2028 30.9466 34.9415 32.3706 33.3268 32.3706Z" fill="#D31D31"/>
    </g>
    <defs>
    <clipPath id="clip0_2_7315">
    <rect width="32" height="32" fill="white" transform="translate(12 12)"/>
    </clipPath>
    </defs>
</symbol>
<symbol viewBox="0 0 56 56" fill="none" id="twitter">
    <circle cx="28" cy="28" r="26" fill="#F6F6F6" stroke="#2B7055" stroke-width="4"/>
    <path d="M43.5242 18.5827C42.4108 19.076 41.2148 19.4094 39.9575 19.56C41.2548 18.7837 42.2254 17.562 42.6882 16.1227C41.4693 16.8467 40.1353 17.3563 38.7442 17.6294C37.8087 16.6305 36.5696 15.9685 35.2193 15.746C33.869 15.5235 32.483 15.7531 31.2765 16.399C30.07 17.045 29.1105 18.0712 28.547 19.3183C27.9836 20.5654 27.8476 21.9637 28.1602 23.296C25.6904 23.172 23.2743 22.5301 21.0687 21.4119C18.8631 20.2937 16.9173 18.7242 15.3575 16.8054C14.8242 17.7254 14.5175 18.792 14.5175 19.928C14.5169 20.9507 14.7688 21.9577 15.2507 22.8597C15.7326 23.7617 16.4297 24.5307 17.2802 25.0987C16.2939 25.0673 15.3293 24.8008 14.4668 24.3214V24.4014C14.4667 25.8357 14.9629 27.2259 15.8711 28.336C16.7793 29.4462 18.0436 30.2079 19.4495 30.492C18.5346 30.7396 17.5753 30.7761 16.6442 30.5987C17.0408 31.8328 17.8135 32.9121 18.854 33.6853C19.8945 34.4585 21.1507 34.8869 22.4468 34.9107C20.2466 36.6379 17.5294 37.5748 14.7322 37.5707C14.2367 37.5708 13.7416 37.5419 13.2495 37.484C16.0888 39.3096 19.394 40.2785 22.7695 40.2747C34.1962 40.2747 40.4428 30.8107 40.4428 22.6027C40.4428 22.336 40.4362 22.0667 40.4242 21.8C41.6392 20.9213 42.6881 19.8332 43.5215 18.5867L43.5242 18.5827Z" fill="#D31D31"/>
</symbol>


</svg>
